<svg width="37" height="37" viewBox="0 0 37 37" fill="none" xmlns="http://www.w3.org/2000/svg">
<g id="Subtract">
<mask id="path-1-inside-1_1436_177" fill="white">
<path fill-rule="evenodd" clip-rule="evenodd" d="M18.3334 36.5364C28.4226 36.5364 36.6016 28.3574 36.6016 18.2682C36.6016 8.17895 28.4226 0 18.3334 0C8.24413 0 0.0651855 8.17895 0.0651855 18.2682C0.0651855 28.3574 8.24413 36.5364 18.3334 36.5364ZM23.1952 27.6901L19.8028 18.6236L19.6477 16.5573C19.6288 16.3066 19.9081 16.1454 20.1158 16.2869L22.7013 18.0494C22.8463 18.1482 23.0448 18.1021 23.1313 17.9495L24.3721 15.7609C24.4579 15.6096 24.3974 15.4172 24.2404 15.3423L21.4461 14.0073C21.2185 13.8986 21.2185 13.5746 21.4461 13.4659L24.2404 12.1309C24.3974 12.056 24.4579 11.8636 24.3721 11.7123L23.1313 9.5237C23.0448 9.37108 22.8463 9.32495 22.7013 9.42377L20.1158 11.1863C19.9081 11.3278 19.6288 11.1666 19.6477 10.9159L19.8802 7.81832C19.8932 7.64428 19.7556 7.49586 19.581 7.49586H17.0966C16.922 7.49586 16.7843 7.64428 16.7974 7.81832L17.03 10.9171C17.0488 11.1675 16.77 11.3288 16.5622 11.1877L13.9653 9.4231C13.8203 9.32459 13.6221 9.37081 13.5357 9.52328L12.2947 11.7123C12.2089 11.8636 12.2694 12.056 12.4263 12.1309L15.2206 13.4659C15.4482 13.5746 15.4482 13.8986 15.2206 14.0073L12.4263 15.3423C12.2694 15.4172 12.2089 15.6096 12.2947 15.7609L13.5357 17.9499C13.6221 18.1024 13.8203 18.1486 13.9653 18.0501L16.5622 16.2855C16.77 16.1443 17.0488 16.3056 17.03 16.5561L16.8775 18.5877L13.4717 27.6901C13.2271 28.3437 13.7104 29.0405 14.4083 29.0405H22.2586C22.9565 29.0405 23.4397 28.3437 23.1952 27.6901Z"/>
</mask>
<path d="M19.8028 18.6236L17.8084 18.7734L17.8297 19.0576L17.9296 19.3245L19.8028 18.6236ZM23.1952 27.6901L25.0683 26.9892V26.9892L23.1952 27.6901ZM19.6477 16.5573L21.642 16.4076V16.4075L19.6477 16.5573ZM20.1158 16.2869L18.9893 17.9395L18.9893 17.9395L20.1158 16.2869ZM22.7013 18.0494L23.8278 16.3969L23.8278 16.3968L22.7013 18.0494ZM23.1313 17.9495L21.3914 16.9631L21.3914 16.9631L23.1313 17.9495ZM24.3721 15.7609L26.1119 16.7473L26.1119 16.7473L24.3721 15.7609ZM24.2404 15.3423L23.3783 17.1469H23.3783L24.2404 15.3423ZM21.4461 14.0073L22.3083 12.2027L22.3083 12.2027L21.4461 14.0073ZM21.4461 13.4659L20.584 11.6613L20.584 11.6613L21.4461 13.4659ZM24.2404 12.1309L23.3783 10.3263L24.2404 12.1309ZM24.3721 11.7123L26.1119 10.7259L26.1119 10.7259L24.3721 11.7123ZM23.1313 9.5237L24.8711 8.53733L24.8711 8.53732L23.1313 9.5237ZM22.7013 9.42377L23.8278 11.0763L23.8278 11.0763L22.7013 9.42377ZM20.1158 11.1863L18.9893 9.5337L18.9893 9.5337L20.1158 11.1863ZM19.6477 10.9159L21.642 11.0656V11.0656L19.6477 10.9159ZM19.8802 7.81832L17.8858 7.6686V7.66861L19.8802 7.81832ZM16.7974 7.81832L14.803 7.96802L14.803 7.96804L16.7974 7.81832ZM17.03 10.9171L19.0244 10.7674V10.7674L17.03 10.9171ZM16.5622 11.1877L17.6863 9.53346L17.6863 9.53346L16.5622 11.1877ZM13.9653 9.4231L15.0893 7.76885L15.0893 7.76885L13.9653 9.4231ZM13.5357 9.52328L11.7958 8.53691L11.7958 8.53691L13.5357 9.52328ZM12.2947 11.7123L10.5548 10.7259V10.7259L12.2947 11.7123ZM12.4263 12.1309L13.2885 10.3263L13.2885 10.3263L12.4263 12.1309ZM15.2206 13.4659L16.0828 11.6613L16.0828 11.6613L15.2206 13.4659ZM15.2206 14.0073L14.3585 12.2027L14.3585 12.2027L15.2206 14.0073ZM12.4263 15.3423L13.2885 17.1469L13.2885 17.1469L12.4263 15.3423ZM12.2947 15.7609L10.5548 16.7473L10.5548 16.7473L12.2947 15.7609ZM13.5357 17.9499L11.7958 18.9363L11.7959 18.9363L13.5357 17.9499ZM13.9653 18.0501L15.0893 19.7043H15.0893L13.9653 18.0501ZM16.5622 16.2855L15.4382 14.6312L15.4382 14.6312L16.5622 16.2855ZM17.03 16.5561L19.0244 16.7058V16.7058L17.03 16.5561ZM16.8775 18.5877L18.7507 19.2885L18.8506 19.0216L18.8719 18.7374L16.8775 18.5877ZM13.4717 27.6901L11.5985 26.9892L11.5985 26.9892L13.4717 27.6901ZM34.6016 18.2682C34.6016 27.2529 27.318 34.5364 18.3334 34.5364V38.5364C29.5272 38.5364 38.6016 29.462 38.6016 18.2682H34.6016ZM18.3334 2C27.318 2 34.6016 9.28352 34.6016 18.2682H38.6016C38.6016 7.07438 29.5272 -2 18.3334 -2V2ZM2.06519 18.2682C2.06519 9.28352 9.3487 2 18.3334 2V-2C7.13956 -2 -1.93481 7.07438 -1.93481 18.2682H2.06519ZM18.3334 34.5364C9.3487 34.5364 2.06519 27.2529 2.06519 18.2682H-1.93481C-1.93481 29.462 7.13956 38.5364 18.3334 38.5364V34.5364ZM17.9296 19.3245L21.322 28.391L25.0683 26.9892L21.6759 17.9228L17.9296 19.3245ZM17.6533 16.707L17.8084 18.7734L21.7972 18.4739L21.642 16.4076L17.6533 16.707ZM21.2423 14.6344C19.6501 13.549 17.509 14.7854 17.6533 16.707L21.642 16.4075C21.7487 17.8278 20.1661 18.7417 18.9893 17.9395L21.2423 14.6344ZM23.8278 16.3968L21.2423 14.6344L18.9893 17.9395L21.5748 19.702L23.8278 16.3968ZM21.3914 16.9631C21.8818 16.0982 23.0064 15.8369 23.8278 16.3969L21.5748 19.702C22.6862 20.4596 24.2078 20.106 24.8711 18.9359L21.3914 16.9631ZM22.6322 14.7745L21.3914 16.9631L24.8711 18.9359L26.1119 16.7473L22.6322 14.7745ZM23.3783 17.1469C22.4888 16.7219 22.1461 15.6321 22.6322 14.7745L26.1119 16.7473C26.7696 15.5871 26.3059 14.1125 25.1026 13.5376L23.3783 17.1469ZM20.584 15.8119L23.3783 17.1469L25.1026 13.5376L22.3083 12.2027L20.584 15.8119ZM20.584 11.6613C18.8393 12.4948 18.8393 14.9784 20.584 15.8119L22.3083 12.2027C23.5978 12.8187 23.5978 14.6545 22.3083 15.2705L20.584 11.6613ZM23.3783 10.3263L20.584 11.6613L22.3083 15.2705L25.1026 13.9356L23.3783 10.3263ZM22.6322 12.6987C22.1461 11.8411 22.4888 10.7512 23.3783 10.3263L25.1026 13.9356C26.3059 13.3607 26.7696 11.8861 26.1119 10.7259L22.6322 12.6987ZM21.3914 10.5101L22.6322 12.6987L26.1119 10.7259L24.8711 8.53733L21.3914 10.5101ZM23.8278 11.0763C23.0064 11.6363 21.8818 11.3749 21.3914 10.5101L24.8711 8.53732C24.2078 7.36723 22.6862 7.01359 21.5748 7.77121L23.8278 11.0763ZM21.2423 12.8388L23.8278 11.0763L21.5748 7.77121L18.9893 9.5337L21.2423 12.8388ZM17.6533 10.7662C17.509 12.6878 19.6501 13.9242 21.2423 12.8388L18.9893 9.5337C20.1661 8.73147 21.7487 9.64535 21.642 11.0656L17.6533 10.7662ZM17.8858 7.66861L17.6533 10.7662L21.642 11.0656L21.8746 7.96804L17.8858 7.66861ZM19.581 9.49586C18.592 9.49586 17.8118 8.65486 17.8858 7.6686L21.8746 7.96804C21.9747 6.63369 20.9191 5.49586 19.581 5.49586V9.49586ZM17.0966 9.49586H19.581V5.49586H17.0966V9.49586ZM18.7918 7.66863C18.8658 8.65485 18.0856 9.49586 17.0966 9.49586V5.49586C15.7584 5.49586 14.7029 6.63371 14.803 7.96802L18.7918 7.66863ZM19.0244 10.7674L18.7918 7.66861L14.803 7.96804L15.0356 11.0668L19.0244 10.7674ZM15.4382 12.8419C17.0307 13.9241 19.1685 12.6874 19.0244 10.7674L15.0356 11.0668C14.9291 9.64772 16.5092 8.73364 17.6863 9.53346L15.4382 12.8419ZM12.8412 11.0773L15.4382 12.842L17.6863 9.53346L15.0893 7.76885L12.8412 11.0773ZM15.2755 10.5097C14.7857 11.3736 13.6627 11.6355 12.8412 11.0773L15.0893 7.76885C13.9779 7.01366 12.4585 7.36798 11.7958 8.53691L15.2755 10.5097ZM14.0345 12.6987L15.2755 10.5096L11.7958 8.53691L10.5548 10.7259L14.0345 12.6987ZM13.2885 10.3263C14.1779 10.7512 14.5207 11.8411 14.0345 12.6987L10.5548 10.7259C9.8971 11.8861 10.3608 13.3607 11.5642 13.9356L13.2885 10.3263ZM16.0828 11.6613L13.2885 10.3263L11.5642 13.9356L14.3585 15.2705L16.0828 11.6613ZM16.0828 15.8119C17.8275 14.9784 17.8275 12.4948 16.0828 11.6613L14.3585 15.2705C13.0689 14.6545 13.0689 12.8187 14.3585 12.2027L16.0828 15.8119ZM13.2885 17.1469L16.0828 15.8119L14.3585 12.2027L11.5642 13.5376L13.2885 17.1469ZM14.0345 14.7745C14.5207 15.632 14.1779 16.722 13.2885 17.1469L11.5642 13.5376C10.3608 14.1125 9.8971 15.5871 10.5548 16.7473L14.0345 14.7745ZM15.2755 16.9635L14.0345 14.7745L10.5548 16.7473L11.7958 18.9363L15.2755 16.9635ZM12.8412 16.3958C13.6627 15.8377 14.7857 16.0996 15.2755 16.9635L11.7959 18.9363C12.4585 20.1052 13.9779 20.4595 15.0893 19.7043L12.8412 16.3958ZM15.4382 14.6312L12.8412 16.3958L15.0893 19.7043L17.6863 17.9397L15.4382 14.6312ZM19.0244 16.7058C19.1685 14.7858 17.0307 13.5492 15.4382 14.6312L17.6863 17.9397C16.5092 18.7395 14.9291 17.8255 15.0356 16.4064L19.0244 16.7058ZM18.8719 18.7374L19.0244 16.7058L15.0356 16.4064L14.8831 18.438L18.8719 18.7374ZM15.3448 28.391L18.7507 19.2885L15.0043 17.8868L11.5985 26.9892L15.3448 28.391ZM14.4083 27.0405C15.1062 27.0405 15.5894 27.7373 15.3448 28.391L11.5985 26.9892C10.8648 28.9501 12.3146 31.0405 14.4083 31.0405V27.0405ZM22.2586 27.0405H14.4083V31.0405H22.2586V27.0405ZM21.322 28.391C21.0774 27.7373 21.5607 27.0405 22.2586 27.0405V31.0405C24.3523 31.0405 25.802 28.9501 25.0683 26.9892L21.322 28.391Z" fill="#ACACAC" mask="url(#path-1-inside-1_1436_177)"/>
</g>
</svg>
