<svg width="32" height="29" viewBox="0 0 32 29" fill="none" xmlns="http://www.w3.org/2000/svg">
<g id="&#226;&#153;&#165;" filter="url(#filter0_di_1283_12461)">
<path d="M26.1103 17.924C24.3274 20.0182 20.6202 22.9162 17.5046 25.5907C16.6627 26.3135 15.4174 26.3337 14.5696 25.6178C11.7419 23.4149 8.61837 20.9489 5.95512 17.924C4.37689 16.1156 3.45627 14.4059 2.96307 12.7619C2.56852 11.1179 2.63427 9.57256 2.89731 8.09298C3.65354 4.87077 6.31679 2.10889 10.0979 2.10889C12.4982 2.10889 14.3065 3.42407 15.4902 5.13381C15.4934 5.13823 15.4965 5.14268 15.4997 5.14716C15.7583 5.51228 16.3152 5.49788 16.5752 5.13381C17.7589 3.42407 19.5673 2.10889 21.9675 2.10889C25.7487 2.10889 28.4448 4.87077 29.1681 8.09298C29.4312 9.57256 29.5298 11.1179 29.1024 12.7619C28.6421 14.4059 27.6886 16.1156 26.1103 17.924Z" fill="white" shape-rendering="crispEdges"/>
<path d="M5.20168 18.5815L5.20457 18.5848C7.93329 21.6841 11.1216 24.1992 13.9409 26.3957C15.1727 27.4222 16.9567 27.379 18.156 26.3495C18.9292 25.6857 19.7401 25.0073 20.5546 24.326L20.5756 24.3084C21.3812 23.6346 22.1899 22.958 22.9584 22.2987C24.4944 20.9807 25.9199 19.6892 26.8678 18.5769C28.5169 16.6863 29.5563 14.8495 30.0653 13.0315L30.0679 13.0225L30.0702 13.0135C30.5476 11.1774 30.4292 9.47342 30.1527 7.91794L30.1488 7.89584L30.1439 7.87394C29.3368 4.27891 26.2973 1.10889 21.9675 1.10889C19.3459 1.10889 17.3568 2.45871 16.0327 4.18127C14.7087 2.45871 12.7195 1.10889 10.0979 1.10889C5.76184 1.10889 2.76385 4.28498 1.92376 7.86449L1.91753 7.89107L1.91275 7.91794C1.63323 9.49024 1.55521 11.1808 1.99068 12.9953L1.99721 13.0224L2.00524 13.0492C2.54438 14.8464 3.54183 16.6796 5.20168 18.5815Z" stroke="#877E7E" stroke-opacity="0.69" stroke-width="2" shape-rendering="crispEdges"/>
</g>
<defs>
<filter id="filter0_di_1283_12461" x="0.683594" y="0.108887" width="30.7107" height="28.035" filterUnits="userSpaceOnUse" color-interpolation-filters="sRGB">
<feBlend mode="normal" in2="shape" result="effect2_innerShadow_1283_12461"/>
</filter>
</defs>
</svg>
