<svg width="35" height="37" viewBox="0 0 35 37" fill="none" xmlns="http://www.w3.org/2000/svg">
<path id="SET_C" d="M15.0615 1.91278C14.2661 1.91278 13.5861 2.47504 13.4333 3.25551L12.8787 6.10313C11.5158 6.61851 10.2556 7.33854 9.14892 8.24695L6.41806 7.3064C5.66582 7.04735 4.83818 7.35839 4.43965 8.04587L1.93582 12.3854C1.53894 13.0745 1.68338 13.9494 2.28285 14.4709L4.47208 16.3747C4.35823 17.0744 4.28397 17.7867 4.28397 18.5185C4.28397 19.2503 4.35823 19.9626 4.47208 20.6623L2.28285 22.5661C1.68338 23.0876 1.53894 23.9624 1.93582 24.6516L4.43965 28.9911C4.83652 29.6803 5.66582 29.9912 6.41806 29.7338L9.14892 28.7933C10.2552 29.7011 11.5164 30.4187 12.8787 30.9339L13.4333 33.7815C13.5861 34.562 14.2661 35.1242 15.0615 35.1242H20.0756C20.871 35.1242 21.551 34.562 21.7038 33.7815L22.2584 30.9339C23.6213 30.4185 24.8815 29.6985 25.9882 28.79L28.719 29.7306C29.4713 29.9896 30.2989 29.6803 30.6974 28.9911L33.2013 24.6483C33.5981 23.9592 33.4537 23.0876 32.8542 22.5661L30.665 20.6623C30.7789 19.9626 30.8531 19.2503 30.8531 18.5185C30.8531 17.7867 30.7789 17.0744 30.665 16.3747L32.8542 14.4709C33.4537 13.9494 33.5981 13.0745 33.2013 12.3854L30.6974 8.04587C30.3006 7.35673 29.4713 7.04576 28.719 7.30315L25.9882 8.24371C24.8819 7.33587 23.6207 6.61828 22.2584 6.10313L21.7038 3.25551C21.551 2.47504 20.871 1.91278 20.0756 1.91278H15.0615ZM17.5685 11.8762C21.2367 11.8762 24.2108 14.8503 24.2108 18.5185C24.2108 22.1867 21.2367 25.1608 17.5685 25.1608C13.9003 25.1608 10.9263 22.1867 10.9263 18.5185C10.9263 14.8503 13.9003 11.8762 17.5685 11.8762Z" fill="#FD7B1C" stroke="#FD7B1C" stroke-width="2"/>
</svg>
