<svg width="37" height="37" viewBox="0 0 61 61" fill="none" xmlns="http://www.w3.org/2000/svg">
<path id="Subtract" fill-rule="evenodd" clip-rule="evenodd" d="M30.5 61C47.3447 61 61 47.3447 61 30.5C61 13.6553 47.3447 0 30.5 0C13.6553 0 0 13.6553 0 30.5C0 47.3447 13.6553 61 30.5 61ZM38.9554 47.1347L32.9533 31.0935L32.6631 27.2274C32.6443 26.9768 32.9235 26.8155 33.1312 26.9571L37.9729 30.2576C38.1179 30.3564 38.3163 30.3103 38.4029 30.1576L40.6883 26.1264C40.7741 25.9751 40.7136 25.7827 40.5566 25.7077L35.3176 23.2048C35.09 23.0961 35.09 22.7721 35.3176 22.6634L40.5566 20.1605C40.7136 20.0855 40.7741 19.8932 40.6883 19.7418L38.4029 15.7106C38.3163 15.558 38.1179 15.5118 37.9729 15.6107L33.1312 18.9111C32.9235 19.0527 32.6443 18.8914 32.6631 18.6408L33.0987 12.8372C33.1118 12.6632 32.9741 12.5148 32.7996 12.5148H28.2185C28.044 12.5148 27.9063 12.6632 27.9194 12.8372L28.3551 18.642C28.3739 18.8924 28.0951 19.0537 27.8874 18.9126L23.027 15.61C22.882 15.5115 22.6838 15.5577 22.5974 15.7102L20.3117 19.7418C20.226 19.8932 20.2864 20.0855 20.4434 20.1605L25.6825 22.6634C25.91 22.7721 25.91 23.0961 25.6825 23.2048L20.4434 25.7077C20.2864 25.7827 20.226 25.9751 20.3117 26.1264L22.5974 30.1581C22.6838 30.3105 22.882 30.3567 23.027 30.2582L27.8874 26.9557C28.0951 26.8145 28.3739 26.9758 28.3551 27.2263L28.0693 31.0334L22.0447 47.1347C21.8002 47.7883 22.2834 48.4851 22.9813 48.4851H38.0188C38.7167 48.4851 39.2 47.7883 38.9554 47.1347Z" fill="#FD7B1C"/>
</svg>
