<svg width="43" height="37" viewBox="0 0 43 37" fill="none" xmlns="http://www.w3.org/2000/svg">
<g id="HOME_C">
<rect id="Rectangle 388" x="13.8823" y="16.076" width="16.8301" height="18.36" fill="white"/>
<path id="HOME_C_2" fill-rule="evenodd" clip-rule="evenodd" d="M16.8709 1.82423C19.4932 -0.608077 23.5471 -0.608075 26.1694 1.82423L39.8874 14.5483C43.9025 18.2724 42.0582 24.6326 37.3114 26.0925C37.4156 26.567 37.4705 27.06 37.4705 27.5659V29.1892C37.4705 32.965 34.4097 36.0258 30.6339 36.0258H12.4062C8.63038 36.0258 5.5695 32.965 5.5695 29.1892V27.5659C5.5695 27.06 5.62443 26.567 5.72867 26.0925C0.982024 24.6324 -0.862203 18.2724 3.15285 14.5483L16.8709 1.82423ZM16.8913 23.1893V23.864V34.2044H26.2016V23.864V23.1893H26.1507C26.0947 22.8208 25.993 22.4596 25.8472 22.1138C25.6133 21.5589 25.2704 21.0547 24.8381 20.63C24.4059 20.2054 23.8927 19.8685 23.3279 19.6386C22.7631 19.4088 22.1578 19.2905 21.5464 19.2905C20.9351 19.2905 20.3298 19.4088 19.765 19.6386C19.2002 19.8685 18.687 20.2054 18.2548 20.63C17.8225 21.0547 17.4796 21.5589 17.2456 22.1138C17.0999 22.4596 16.9982 22.8208 16.9422 23.1893H16.8913Z" fill="#FD7B1C"/>
</g>
</svg>
