<svg width="43" height="37" viewBox="0 0 43 37" fill="none" xmlns="http://www.w3.org/2000/svg">
<g id="HOME_B">
<mask id="path-1-inside-1_1490_626" fill="white">
<path fill-rule="evenodd" clip-rule="evenodd" d="M16.8709 1.82423C19.4932 -0.608077 23.5471 -0.608075 26.1694 1.82423L39.8874 14.5483C43.9025 18.2724 42.0582 24.6326 37.3114 26.0925C37.4156 26.567 37.4705 27.06 37.4705 27.5659V29.1892C37.4705 32.965 34.4097 36.0258 30.6339 36.0258H12.4062C8.63038 36.0258 5.5695 32.965 5.5695 29.1892V27.5659C5.5695 27.06 5.62443 26.567 5.72867 26.0925C0.982023 24.6324 -0.862203 18.2724 3.15285 14.5483L16.8709 1.82423Z"/>
</mask>
<path d="M26.1694 1.82423L24.8093 3.29057V3.29057L26.1694 1.82423ZM16.8709 1.82423L15.5108 0.357886V0.357886L16.8709 1.82423ZM39.8874 14.5483L38.5273 16.0146L39.8874 14.5483ZM37.3114 26.0925L36.7234 24.1809L34.9628 24.7224L35.3579 26.5216L37.3114 26.0925ZM5.72867 26.0925L7.6821 26.5215L8.07729 24.7224L6.31667 24.1808L5.72867 26.0925ZM3.15285 14.5483L4.51294 16.0146L4.51294 16.0146L3.15285 14.5483ZM27.5295 0.357888C24.14 -2.78596 18.9002 -2.78596 15.5108 0.357886L18.231 3.29057C20.0861 1.56981 22.9541 1.56981 24.8093 3.29057L27.5295 0.357888ZM41.2475 13.0819L27.5295 0.357888L24.8093 3.29057L38.5273 16.0146L41.2475 13.0819ZM37.8993 28.0041C44.0297 26.1187 46.4595 17.9163 41.2475 13.0819L38.5273 16.0146C41.3455 18.6286 40.0866 23.1465 36.7234 24.1809L37.8993 28.0041ZM39.4705 27.5659C39.4705 26.9148 39.3998 26.278 39.2648 25.6635L35.3579 26.5216C35.4314 26.8561 35.4705 27.2053 35.4705 27.5659H39.4705ZM39.4705 29.1892V27.5659H35.4705V29.1892H39.4705ZM30.6339 38.0258C35.5142 38.0258 39.4705 34.0695 39.4705 29.1892H35.4705C35.4705 31.8604 33.3051 34.0258 30.6339 34.0258V38.0258ZM12.4062 38.0258H30.6339V34.0258H12.4062V38.0258ZM3.5695 29.1892C3.5695 34.0695 7.52581 38.0258 12.4062 38.0258V34.0258C9.73494 34.0258 7.5695 31.8604 7.5695 29.1892H3.5695ZM3.5695 27.5659V29.1892H7.5695V27.5659H3.5695ZM3.77524 25.6634C3.64025 26.2779 3.5695 26.9148 3.5695 27.5659H7.5695C7.5695 27.2052 7.60862 26.8561 7.6821 26.5215L3.77524 25.6634ZM1.79276 13.0819C-3.41917 17.9162 -0.989522 26.1184 5.14066 28.0041L6.31667 24.1808C2.95357 23.1464 1.69477 18.6286 4.51294 16.0146L1.79276 13.0819ZM15.5108 0.357886L1.79276 13.0819L4.51294 16.0146L18.231 3.29057L15.5108 0.357886Z" fill="#ACACAC" mask="url(#path-1-inside-1_1490_626)"/>
</g>
</svg>
