<svg width="103" height="103" viewBox="0 0 103 103" fill="none" xmlns="http://www.w3.org/2000/svg">
<g id="Group 849">
<g id="Ellipse 385" filter="url(#filter0_f_1628_1147)">
<circle cx="51.5" cy="51.5" r="37.5" fill="white" fill-opacity="0.34"/>
</g>
<path id="Rectangle 536" d="M25.838 47.9621C25.2323 44.8733 27.597 42 30.7445 42H68.5933C71.7409 42 74.1055 44.8734 73.4999 47.9621L67.0442 80.8862C65.6643 87.9237 59.496 93 52.3245 93H47.0134C39.8419 93 33.6736 87.9237 32.2937 80.8862L25.838 47.9621Z" fill="#FFBE8E"/>
<path id="Vector 29" d="M32.1689 62.5C37.8356 66 52.8689 70.9 67.6689 62.5" stroke="#F59651" stroke-opacity="0.51" stroke-linecap="round"/>
<g id="Ellipse 388">
<ellipse cx="49.6689" cy="46" rx="24" ry="12" fill="#FFF7F1"/>
<ellipse cx="49.6689" cy="46" rx="24" ry="12" fill="#FFF7F1"/>
<ellipse cx="49.6689" cy="46" rx="24" ry="12" fill="#FFBE8E"/>
</g>
<g id="Ellipse 387" filter="url(#filter1_d_1628_1147)">
<ellipse cx="50.1689" cy="46.5" rx="21.5" ry="10.5" fill="#FFF7F1"/>
<ellipse cx="50.1689" cy="46.5" rx="21.5" ry="10.5" fill="#FFF7F1"/>
<ellipse cx="50.1689" cy="46.5" rx="21.5" ry="10.5" fill="#F59651"/>
</g>
<g id="Ellipse 389" filter="url(#filter2_d_1628_1147)">
<ellipse cx="50.1689" cy="49.5" rx="19.5" ry="7.5" fill="#FFF7F1"/>
<ellipse cx="50.1689" cy="49.5" rx="19.5" ry="7.5" fill="#FFF7F1"/>
<ellipse cx="50.1689" cy="49.5" rx="19.5" ry="7.5" fill="#7D4821"/>
</g>
<path id="*" d="M50.0185 89C49.0794 89 48.3373 88.2035 48.4037 87.2667L48.4158 87.0949C48.508 85.794 47.0413 84.9758 45.9829 85.7376C45.2279 86.2811 44.167 86.0352 43.7281 85.215L43.4662 84.7257C43.0289 83.9086 43.3495 82.8917 44.1764 82.4733C45.3839 81.8622 45.3839 80.1378 44.1764 79.5267C43.3495 79.1083 43.0289 78.0914 43.4662 77.2743L43.7281 76.785C44.167 75.9648 45.2279 75.7189 45.9829 76.2624C47.0413 77.0242 48.508 76.206 48.4158 74.9051L48.4037 74.7333C48.3373 73.7965 49.0794 73 50.0185 73H50.3348C51.2727 73 52.0138 73.7955 51.9475 74.7311L51.9347 74.9115C51.8428 76.2083 53.306 77.0231 54.36 76.2621C55.112 75.7191 56.1701 75.9635 56.6078 76.7812L56.8717 77.2743C57.309 78.0914 56.9884 79.1083 56.1615 79.5267C54.954 80.1378 54.954 81.8622 56.1615 82.4733C56.9884 82.8917 57.309 83.9086 56.8717 84.7257L56.6078 85.2188C56.1701 86.0365 55.112 86.2809 54.36 85.7379C53.306 84.9769 51.8428 85.7917 51.9347 87.0885L51.9475 87.2689C52.0138 88.2045 51.2727 89 50.3348 89H50.0185Z" fill="#9BDAD6"/>
<rect id="Rectangle 537" x="42.212" y="33.3015" width="2.6299" height="19" rx="1.31495" transform="rotate(-11.1609 42.212 33.3015)" fill="#57B0AB"/>
<rect id="Rectangle 538" x="53.6339" y="41.1788" width="2.76605" height="13.1387" rx="1.38303" transform="rotate(10.4767 53.6339 41.1788)" fill="#57B0AB"/>
<path id="*_2" d="M41.9261 42C40.7651 42 39.8481 41.0147 39.9312 39.8567L39.9453 39.6615C40.0637 38.0119 38.2091 36.9685 36.8607 37.9262C35.9037 38.606 34.5675 38.2958 34.0079 37.2639L33.6552 36.6136C33.116 35.6194 33.5078 34.3762 34.5197 33.8709L34.6831 33.7893C36.1583 33.0526 36.1583 30.9474 34.6831 30.2107L34.5197 30.1291C33.5078 29.6238 33.116 28.3806 33.6552 27.3864L34.0079 26.7361C34.5675 25.7042 35.9037 25.394 36.8607 26.0738C38.2091 27.0315 40.0637 25.9881 39.9453 24.3385L39.9312 24.1433C39.8481 22.9853 40.7651 22 41.9261 22H42.4284C43.5894 22 44.5064 22.9853 44.4233 24.1433L44.4086 24.3467C44.2905 25.9912 46.1407 27.0302 47.4834 26.0734C48.4367 25.3942 49.7694 25.7025 50.3275 26.7314L50.6827 27.3864C51.2219 28.3806 50.83 29.6238 49.8182 30.1291L49.6548 30.2107C48.1796 30.9474 48.1796 33.0526 49.6548 33.7893L49.8182 33.8709C50.8301 34.3762 51.2219 35.6194 50.6827 36.6136L50.3275 37.2686C49.7695 38.2975 48.4367 38.6058 47.4834 37.9266C46.1407 36.9698 44.2905 38.0088 44.4086 39.6533L44.4233 39.8567C44.5064 41.0147 43.5894 42 42.4284 42H41.9261Z" fill="#FD7B1C"/>
<path id="*_3" d="M58.2805 49.0634C57.1612 49.3633 56.0221 48.6523 55.8 47.515L55.6098 46.5412C55.2828 44.8672 53.145 44.3444 52.0824 45.6786L51.8003 46.0328C51.035 46.9937 49.5924 47.044 48.762 46.1388L47.831 45.1239C47.0837 44.3092 47.1391 43.0427 47.9548 42.2964L48.781 41.5405C49.9759 40.4472 49.4438 38.4613 47.8623 38.112L46.7689 37.8704C45.6893 37.6319 45.008 36.5628 45.2479 35.4836L45.5467 34.1392C45.8132 32.94 47.0877 32.2623 48.2309 32.7119L48.6523 32.8776C50.2397 33.5017 51.8297 31.9801 51.2759 30.3669L50.9537 29.4284C50.5774 28.3324 51.2084 27.1471 52.3277 26.8471L53.3124 26.5833C54.4317 26.2834 55.5708 26.9944 55.793 28.1317L55.9815 29.097C56.3087 30.7724 58.4493 31.2941 59.5108 29.9571L59.7754 29.6237C60.54 28.6607 61.9844 28.6092 62.8156 29.5153L63.7441 30.5275C64.4915 31.3422 64.4361 32.6088 63.6204 33.3551L62.7942 34.111C61.5993 35.2042 62.1314 37.1901 63.7128 37.5395L64.8063 37.781C65.8859 38.0195 66.5671 39.0886 66.3273 40.1679L66.0293 41.5087C65.7625 42.7091 64.4858 43.3867 63.3422 42.9349L62.9463 42.7785C61.3585 42.1514 59.7656 43.6736 60.3199 45.2881L60.6392 46.2183C61.0155 47.3143 60.3845 48.4997 59.2652 48.7996L58.2805 49.0634Z" fill="#F05700"/>
</g>
<defs>
<filter id="filter0_f_1628_1147" x="0.6" y="0.6" width="101.8" height="101.8" filterUnits="userSpaceOnUse" color-interpolation-filters="sRGB">
<feFlood flood-opacity="0" result="BackgroundImageFix"/>
<feBlend mode="normal" in="SourceGraphic" in2="BackgroundImageFix" result="shape"/>
<feGaussianBlur stdDeviation="6.7" result="effect1_foregroundBlur_1628_1147"/>
</filter>
<filter id="filter1_d_1628_1147" x="25.4689" y="32.8" width="49.4" height="27.4" filterUnits="userSpaceOnUse" color-interpolation-filters="sRGB">
<feFlood flood-opacity="0" result="BackgroundImageFix"/>
<feColorMatrix in="SourceAlpha" type="matrix" values="0 0 0 0 0 0 0 0 0 0 0 0 0 0 0 0 0 0 127 0" result="hardAlpha"/>
<feOffset/>
<feGaussianBlur stdDeviation="1.6"/>
<feComposite in2="hardAlpha" operator="out"/>
<feColorMatrix type="matrix" values="0 0 0 0 0 0 0 0 0 0 0 0 0 0 0 0 0 0 0.16 0"/>
<feBlend mode="normal" in2="BackgroundImageFix" result="effect1_dropShadow_1628_1147"/>
<feBlend mode="normal" in="SourceGraphic" in2="effect1_dropShadow_1628_1147" result="shape"/>
</filter>
<filter id="filter2_d_1628_1147" x="27.4689" y="38.8" width="45.4" height="21.4" filterUnits="userSpaceOnUse" color-interpolation-filters="sRGB">
<feFlood flood-opacity="0" result="BackgroundImageFix"/>
<feColorMatrix in="SourceAlpha" type="matrix" values="0 0 0 0 0 0 0 0 0 0 0 0 0 0 0 0 0 0 127 0" result="hardAlpha"/>
<feOffset/>
<feGaussianBlur stdDeviation="1.6"/>
<feComposite in2="hardAlpha" operator="out"/>
<feColorMatrix type="matrix" values="0 0 0 0 0 0 0 0 0 0 0 0 0 0 0 0 0 0 0.16 0"/>
<feBlend mode="normal" in2="BackgroundImageFix" result="effect1_dropShadow_1628_1147"/>
<feBlend mode="normal" in="SourceGraphic" in2="effect1_dropShadow_1628_1147" result="shape"/>
</filter>
</defs>
</svg>
